<svg width="54" height="42" viewBox="0 0 54 42" fill="none" xmlns="http://www.w3.org/2000/svg">
<path d="M19.5254 8.51957C19.9109 8.77014 19.8917 9.15564 19.5254 9.40621H19.5062C18.9279 9.75316 18.2918 9.94591 17.6365 9.98446C17.1546 10.023 16.692 10.1579 16.2873 10.4085C15.8247 10.6976 15.5741 11.0831 15.5934 11.5072C15.6126 11.9312 15.8632 12.2974 16.3258 12.5866C17.2125 13.1263 18.6581 13.1263 19.5447 12.5866C19.8917 12.3938 20.1615 12.0854 20.2579 11.6999C20.3735 11.1988 20.7012 10.7747 21.1638 10.5049L21.2024 10.4856C21.6264 10.235 22.1468 10.235 22.5516 10.4856L26.8499 13.2612L30.223 11.1217C29.3749 11.0446 28.6039 10.7555 27.8907 10.3121C26.3488 9.25201 26.3488 7.61365 27.8907 6.55353C28.8159 5.97528 29.8568 5.66688 30.9555 5.68616C32.0541 5.64761 33.1142 5.93673 34.0587 6.4957C34.6755 6.90047 35.0996 7.40162 35.2345 7.94132L38.7425 5.93673L29.24 0.867432C27.8136 0.0964356 26.0596 0.0964356 24.6333 0.867432L15.1693 5.89818L19.5254 8.51957Z" fill="#41BEAD"/>
<path d="M53.1023 13.0299L47.0886 9.8303C47.0115 9.79175 46.9344 9.7532 46.8765 9.71465L40.4966 6.32227L35.832 9.0593C35.4465 9.30987 34.8297 9.30987 34.4635 9.0593H34.4442C33.9431 8.73163 33.6154 8.30758 33.5383 7.84498C33.4805 7.51731 33.2299 7.20891 32.8637 6.95834C32.4011 6.66921 31.7843 6.49574 31.1675 6.51501C30.5122 6.51501 29.9146 6.68849 29.4713 6.99689C28.6232 7.57513 28.6232 8.50033 29.4713 9.07858C29.8568 9.32915 30.3387 9.50262 30.8784 9.54117C31.6108 9.599 32.2469 9.81102 32.7288 10.1194L32.748 10.1387C33.1335 10.3893 33.1335 10.7748 32.748 11.0253L28.3726 13.8202L31.7457 15.9597C31.9192 15.3815 32.3625 14.8418 33.0372 14.4563C34.6948 13.4347 37.2969 13.4347 38.9738 14.437C39.8412 14.9574 40.3231 15.6706 40.3231 16.403C40.3424 17.174 39.8798 17.8679 39.0317 18.4076C38.3956 18.8124 37.6246 19.0822 36.7379 19.1786L40.458 21.6844L38.9738 22.4746V30.1268L27.0812 36.0249H27.0619H27.0427L15.1886 30.146L14.8417 22.4168L13.2418 21.6265L18.1184 18.5425C18.5039 18.292 19.1207 18.292 19.4869 18.5425H19.5062C20.0073 18.8702 20.335 19.2943 20.4121 19.7569C20.4699 20.0845 20.7205 20.3929 21.0867 20.6435C21.5493 20.9326 22.1661 21.1061 22.7829 21.0868C23.4383 21.0868 24.0358 20.9134 24.4598 20.605C25.3079 20.0267 25.3079 19.1015 24.4598 18.5233C24.0743 18.2534 23.5925 18.0992 23.0528 18.0607C22.3203 18.0029 21.7035 17.8101 21.2024 17.4824L21.1831 17.4632C20.7976 17.2126 20.7976 16.8271 21.1831 16.5765L25.5585 13.7817L22.2047 11.6229C22.0312 12.2011 21.5879 12.7408 20.9132 13.1263C19.2556 14.1479 16.6535 14.1479 14.9766 13.1456C14.938 13.1263 14.8995 13.107 14.8609 13.0878C14.0707 12.5673 13.6081 11.8927 13.6081 11.1795C13.5888 10.4085 14.0514 9.71465 14.8995 9.17495C15.5356 8.77018 16.3065 8.50033 17.1932 8.40395L13.5695 6.34154L1.02155 13.0299C0.0963583 13.5118 0.115633 14.8225 1.04083 15.3044L9.86873 19.7954V33.442L27.0619 41.9808L44.2552 33.442V19.7954L46.7802 18.504C46.838 18.4655 46.9151 18.4269 46.9729 18.4076L53.0638 15.3044C53.989 14.8225 54.0083 13.5118 53.1023 13.0299Z" fill="#41BEAD"/>
</svg>
